<svg width="36" height="36" viewBox="0 0 36 36" fill="none" xmlns="http://www.w3.org/2000/svg">
<path d="M0 8C0 3.58172 3.58172 0 8 0H28C32.4183 0 36 3.58172 36 8V28C36 32.4183 32.4183 36 28 36H8C3.58172 36 0 32.4183 0 28V8Z" fill="#FBFCFC"/>
<path d="M11.6155 26C11.1552 26 10.7708 25.8458 10.4625 25.5375C10.1542 25.2292 10 24.8448 10 24.3845V11.6155C10 11.1552 10.1542 10.7708 10.4625 10.4625C10.7708 10.1542 11.1552 10 11.6155 10H17.5V26H11.6155ZM18.5 26V18H26V24.3845C26 24.8448 25.8458 25.2292 25.5375 25.5375C25.2292 25.8458 24.8448 26 24.3845 26H18.5ZM18.5 17V10H24.3845C24.8448 10 25.2292 10.1542 25.5375 10.4625C25.8458 10.7708 26 11.1552 26 11.6155V17H18.5Z" fill="#E1340D"/>
</svg>
